:FULLY-SPECIFIED
:FORCE-ALL-JOINTS-BE-3DOF
:DEGREES
781
root 1.49495 16.3664 18.8596 -17.2953 82.276 336.363
lfemur -38.9531 15.0017 -15.0593
ltibia 51.7041 0 0
lfoot -21.6648 18.6586 0
ltoes 19.9772 0 0
rfemur -14.5319 -22.1107 21.9308
rtibia 47.9659 0 0
rfoot -23.1804 -35.1969 0
rtoes -27.7991 0 0
lowerback 0.886171 4.5757 -0.461909
upperback -1.03264 6.10158 -3.7499
thorax -1.19092 3.05777 -3.69239
lowerneck -5.37767 -6.32886 -0.608457
upperneck -2.78872 -8.30784 5.14365
head 0.289375 -4.09069 1.52789
lclavicle 5.09723e-14 -4.60856e-15 0
lhumerus -56.2288 -11.2907 94.8386
lradius 71.2607 0 0
lwrist 13.6214 0 0
lhand -18.2218 -4.34873 0
lfingers 7.12502 0 0
lthumb 8.05646 25.494 0
rclavicle 5.09723e-14 -4.60856e-15 0
rhumerus -32.3287 47.4727 -113.324
rradius 78.5227 0 0
rwrist 6.21339 0 0
rhand -23.7127 -21.3243 0
rfingers 7.12502 0 0
rthumb 2.75543 -771.304 0
782
root 1.44483 16.3927 18.9625 -12.8816 81.2918 340.854
lfemur -38.991 13.9095 -14.6741
ltibia 51.9612 0 0
lfoot -21.3785 17.2681 0
ltoes 19.5379 0 0
rfemur -14.4056 -21.1684 21.7936
rtibia 46.9133 0 0
rfoot -24.0483 -34.7799 0
rtoes -28.5317 0 0
lowerback 0.866394 4.53185 -0.235352
upperback -1.0047 6.04942 -3.67
thorax -1.13941 3.02901 -3.73105
lowerneck -5.41861 -6.16553 -0.519211
upperneck -2.75995 -8.09944 5.0035
head 0.287854 -3.98983 1.47388
lclavicle 4.39193e-14 -4.05323e-15 0
lhumerus -56.3416 -11.1704 94.8483
lradius 71.3829 0 0
lwrist 14.3115 0 0
lhand -17.7521 -3.86508 0
lfingers 7.12502 0 0
lthumb 8.5099 25.9657 0
rclavicle 4.39193e-14 -4.05323e-15 0
rhumerus -33.0279 47.2061 -113.863
rradius 78.1033 0 0
rwrist 6.16462 0 0
rhand -23.9457 -21.8446 0
rfingers 7.12502 0 0
rthumb 2.53075 -771.836 0
783
root 1.40516 16.4166 19.0452 -9.29561 79.9528 344.522
lfemur -39.0627 12.8204 -14.364
ltibia 52.3427 0 0
lfoot -21.1811 15.7748 0
ltoes 19.0254 0 0
rfemur -14.3679 -20.2936 21.6518
rtibia 46.1228 0 0
rfoot -24.703 -34.1859 0
rtoes -28.9328 0 0
lowerback 0.867854 4.48857 -0.0331435
upperback -0.972356 5.99721 -3.59151
thorax -1.09824 3.00057 -3.76021
lowerneck -5.46036 -6.02064 -0.44136
upperneck -2.72626 -7.91508 4.87159
head 0.289609 -3.90047 1.42342
lclavicle 3.60532e-14 -3.51232e-15 0
lhumerus -56.4212 -11.0498 94.8339
lradius 71.4709 0 0
lwrist 15.0185 0 0
lhand -17.3546 -3.39952 0
lfingers 7.12502 0 0
lthumb 8.89366 26.4206 0
rclavicle 3.60532e-14 -3.51232e-15 0
rhumerus -33.6233 46.9744 -114.341
rradius 77.7384 0 0
rwrist 6.12542 0 0
rhand -24.171 -22.3625 0
rfingers 7.12502 0 0
rthumb 2.31349 -772.367 0
784
root 1.37516 16.4384 19.111 -6.45391 78.2799 347.445
lfemur -39.1628 11.7353 -14.1157
ltibia 52.8204 0 0
lfoot -21.0586 14.1986 0
ltoes 18.4511 0 0
rfemur -14.4019 -19.4739 21.507
rtibia 45.5586 0 0
rfoot -25.165 -33.4315 0
rtoes -29.0384 0 0
lowerback 0.887758 4.44681 0.148502
upperback -0.936078 5.94629 -3.51348
thorax -1.06584 2.97309 -3.78066
lowerneck -5.50263 -5.89126 -0.372722
upperneck -2.68744 -7.75101 4.74649
head 0.294468 -3.8208 1.37583
lclavicle 2.74995e-14 -2.98583e-15 0
lhumerus -56.4701 -10.9279 94.7969
lradius 71.5218 0 0
lwrist 15.7377 0 0
lhand -17.0195 -2.94944 0
lfingers 7.12502 0 0
lthumb 9.21719 26.861 0
rclavicle 2.74995e-14 -2.98583e-15 0
rhumerus -34.1226 46.7739 -114.759
rradius 77.4201 0 0
rwrist 6.09202 0 0
rhand -24.3828 -22.8755 0
rfingers 7.12502 0 0
rthumb 2.10935 -772.892 0
785
root 1.35406 16.4582 19.1633 -4.27329 76.2943 349.705
lfemur -39.2859 10.655 -13.916
ltibia 53.3658 0 0
lfoot -20.9972 12.559 0
ltoes 17.8263 0 0
rfemur -14.4906 -18.6973 21.3606
rtibia 45.1849 0 0
rfoot -25.4551 -32.5337 0
rtoes -28.8846 0 0
lowerback 0.923309 4.40751 0.313371
upperback -0.896339 5.89797 -3.43497
thorax -1.04065 2.94721 -3.79315
lowerneck -5.54511 -5.77448 -0.311119
upperneck -2.64325 -7.60345 4.62674
head 0.302258 -3.74898 1.3304
lclavicle 1.83839e-14 -2.47377e-15 0
lhumerus -56.4909 -10.8038 94.7388
lradius 71.5328 0 0
lwrist 16.4646 0 0
lhand -16.737 -2.51223 0
lfingers 7.12502 0 0
lthumb 9.48992 27.2891 0
rclavicle 1.83839e-14 -2.47377e-15 0
rhumerus -34.5336 46.6013 -115.122
rradius 77.1402 0 0
rwrist 6.06066 0 0
rhand -24.5751 -23.3814 0
rfingers 7.12502 0 0
rthumb 1.92402 -773.41 0
786
root 1.34108 16.4762 19.2056 -2.67046 74.0171 351.382
lfemur -39.4265 9.58039 -13.7517
ltibia 53.9502 0 0
lfoot -20.983 10.8761 0
ltoes 17.1625 0 0
rfemur -14.6171 -17.9516 21.2141
rtibia 44.9661 0 0
rfoot -25.5938 -31.5093 0
rtoes -28.5072 0 0
lowerback 0.971715 4.37162 0.465249
upperback -0.853614 5.85357 -3.35505
thorax -1.02111 2.92355 -3.79845
lowerneck -5.5875 -5.66737 -0.254371
upperneck -2.59347 -7.46865 4.51091
head 0.312806 -3.68319 1.28647
lclavicle 8.83197e-15 -1.97613e-15 0
lhumerus -56.486 -10.6766 94.6611
lradius 71.501 0 0
lwrist 17.1945 0 0
lhand -16.4973 -2.08528 0
lfingers 7.12502 0 0
lthumb 9.72129 27.7074 0
rclavicle 8.83197e-15 -1.97613e-15 0
rhumerus -34.8641 46.453 -115.432
rradius 76.8907 0 0
rwrist 6.02757 0 0
rhand -24.7419 -23.8776 0
rfingers 7.12502 0 0
rthumb 1.76322 -773.918 0
787
root 1.33543 16.4927 19.2412 -1.56214 71.4691 352.557
lfemur -39.5791 8.51244 -13.6095
ltibia 54.5454 0 0
lfoot -21.002 9.16938 0
ltoes 16.4708 0 0
rfemur -14.7645 -17.2245 21.0689
rtibia 44.8664 0 0
rfoot -25.6016 -30.3749 0
rtoes -27.9425 0 0
lowerback 1.03018 4.34009 0.607923
upperback -0.808376 5.81444 -3.27277
thorax -1.00567 2.90277 -3.79734
lowerneck -5.6295 -5.56701 -0.200299
upperneck -2.5379 -7.34283 4.39754
head 0.325942 -3.62159 1.24334
lclavicle -1.0307e-15 -1.49292e-15 0
lhumerus -56.4579 -10.5453 94.5652
lradius 71.4235 0 0
lwrist 17.9229 0 0
lhand -16.2906 -1.66596 0
lfingers 7.12502 0 0
lthumb 9.92075 28.1179 0
rclavicle -1.0307e-15 -1.49292e-15 0
rhumerus -35.1218 46.3256 -115.691
rradius 76.6636 0 0
rwrist 5.98896 0 0
rhand -24.8775 -24.3619 0
rfingers 7.12502 0 0
rthumb 1.63264 -774.412 0
788
root 1.33635 16.5078 19.2735 -0.865062 68.6716 353.31
lfemur -39.7384 7.452 -13.4763
ltibia 55.1227 0 0
lfoot -21.0403 7.45874 0
ltoes 15.7628 0 0
rfemur -14.9157 -16.504 20.9265
rtibia 44.85 0 0
rfoot -25.4992 -29.1474 0
rtoes -27.2263 0 0
lowerback 1.09591 4.31386 0.745177
upperback -0.761099 5.78188 -3.1872
thorax -0.992772 2.88548 -3.79057
lowerneck -5.67079 -5.47048 -0.146723
upperneck -2.47629 -7.22224 4.2852
head 0.341491 -3.56237 1.20032
lclavicle -1.10785e-14 -1.02413e-15 0
lhumerus -56.409 -10.4089 94.4527
lradius 71.2976 0 0
lwrist 18.6451 0 0
lhand -16.1072 -1.25166 0
lfingers 7.12502 0 0
lthumb 10.0977 28.5231 0
rclavicle -1.10785e-14 -1.02413e-15 0
rhumerus -35.3144 46.2157 -115.903
rradius 76.4508 0 0
rwrist 5.94109 0 0
rhand -24.9758 -24.8319 0
rfingers 7.12502 0 0
rthumb 1.53798 -774.891 0
789
root 1.34304 16.5218 19.3059 -0.495946 65.6455 353.721
lfemur -39.8988 6.39995 -13.3389
ltibia 55.6538 0 0
lfoot -21.0841 5.76392 0
ltoes 15.0497 0 0
rfemur -15.0538 -15.7777 20.7884
rtibia 44.8811 0 0
rfoot -25.3072 -27.8437 0
rtoes -26.3946 0 0
lowerback 1.16611 4.29387 0.880798
upperback -0.712256 5.75724 -3.09739
thorax -0.980846 2.87234 -3.77893
lowerneck -5.71109 -5.37486 -0.0914647
upperneck -2.40844 -7.1031 4.17244
head 0.359281 -3.50368 1.15674
lclavicle -2.11859e-14 -5.69763e-16 0
lhumerus -56.342 -10.2666 94.325
lradius 71.1203 0 0
lwrist 19.3566 0 0
lhand -15.9373 -0.839784 0
lfingers 7.12502 0 0
lthumb 10.2617 28.9253 0
rclavicle -2.11859e-14 -5.69763e-16 0
rhumerus -35.4498 46.1196 -116.07
rradius 76.2441 0 0
rwrist 5.88017 0 0
rhand -25.031 -25.2853 0
rfingers 7.12502 0 0
rthumb 1.48495 -775.351 0
790
root 1.35474 16.5349 19.3418 -0.371515 62.412 353.871
lfemur -40.0549 5.35718 -13.184
ltibia 56.1102 0 0
lfoot -21.1193 4.10468 0
ltoes 14.3429 0 0
rfemur -15.1619 -15.0335 20.6561
rtibia 44.9242 0 0
rfoot -25.0461 -26.4804 0
rtoes -25.4836 0 0
lowerback 1.23799 4.28108 1.01857
upperback -0.662322 5.74182 -3.0024
thorax -0.968339 2.86398 -3.76317
lowerneck -5.75008 -5.27722 -0.0323434
upperneck -2.33412 -6.98166 4.05782
head 0.379141 -3.44371 1.1119
lclavicle -3.12271e-14 -1.29823e-16 0
lhumerus -56.2591 -10.1173 94.1836
lradius 70.8888 0 0
lwrist 20.0529 0 0
lhand -15.7711 -0.427701 0
lfingers 7.12502 0 0
lthumb 10.4221 29.3266 0
rclavicle -3.12271e-14 -1.29823e-16 0
rhumerus -35.5357 46.034 -116.195
rradius 76.0356 0 0
rwrist 5.80243 0 0
rhand -25.0371 -25.7196 0
rfingers 7.12502 0 0
rthumb 1.47925 -775.79 0
